<svg viewBox="0 0 1000 420" xmlns="http://www.w3.org/2000/svg">
  <defs>
    <pattern id="grid" width="20" height="20" patternUnits="userSpaceOnUse">
      <path d="M 20 0 L 0 0 0 20" fill="none" stroke="#e5e5e5" stroke-width="0.5"/>
    </pattern>
    <marker id="arrow" markerWidth="10" markerHeight="10" refX="9" refY="3" orient="auto">
      <path d="M0,0 L0,6 L9,3 z" fill="#3498db"/>
    </marker>
    <marker id="arrowGreen" markerWidth="10" markerHeight="10" refX="9" refY="3" orient="auto">
      <path d="M0,0 L0,6 L9,3 z" fill="#27ae60"/>
    </marker>
  </defs>
  <rect width="1000" height="420" fill="#fafafa"/>
  <rect width="1000" height="420" fill="url(#grid)"/>

  <text x="40" y="40" font-family="monospace" font-size="14" fill="#333" font-weight="bold">ZORGAPP_SYSTEM</text>
  <text x="185" y="40" font-family="monospace" font-size="12" fill="#888">[ ARCHITECTURE ]</text>

  <circle cx="110" cy="185" r="35" fill="none" stroke="#ccc" stroke-width="2"/>
  <circle cx="110" cy="185" r="18" fill="#27ae60"/>
  <rect x="55" y="235" width="110" height="28" fill="none" stroke="#ccc" stroke-width="1"/>
  <text x="110" y="253" font-family="monospace" font-size="11" fill="#666" text-anchor="middle">GEBRUIKER</text>
  <text x="110" y="278" font-family="monospace" font-size="8" fill="#999" text-anchor="middle">kind / ouder</text>

  <path d="M 145 185 L 250 185" stroke="#27ae60" stroke-width="2" fill="none" marker-end="url(#arrowGreen)"/>
  <text x="198" y="205" font-family="monospace" font-size="9" fill="#27ae60" text-anchor="middle">interactie</text>

  <rect x="250" y="110" width="200" height="150" fill="none" stroke="#ccc" stroke-width="2"/>
  <text x="350" y="95" font-family="monospace" font-size="10" fill="#666" text-anchor="middle">UNITY_CLIENT</text>
  <rect x="275" y="135" width="150" height="30" fill="#fff" stroke="#9b59b6" stroke-width="1.5"/>
  <text x="350" y="154" font-family="monospace" font-size="10" fill="#9b59b6" text-anchor="middle">scene_scripts</text>
  <rect x="275" y="175" width="150" height="30" fill="#fff" stroke="#3498db" stroke-width="1.5"/>
  <text x="350" y="194" font-family="monospace" font-size="10" fill="#3498db" text-anchor="middle">api_clients</text>
  <rect x="275" y="215" width="150" height="30" fill="#fff" stroke="#f39c12" stroke-width="1.5"/>
  <text x="350" y="234" font-family="monospace" font-size="10" fill="#f39c12" text-anchor="middle">webclient + token</text>

  <path d="M 450 185 L 575 185" stroke="#3498db" stroke-width="2" fill="none" marker-end="url(#arrow)"/>
  <text x="513" y="170" font-family="monospace" font-size="9" fill="#3498db" text-anchor="middle">https + bearer</text>

  <rect x="575" y="85" width="220" height="200" fill="none" stroke="#ccc" stroke-width="2"/>
  <text x="685" y="70" font-family="monospace" font-size="10" fill="#666" text-anchor="middle">DOTNET_WEB_API</text>
  <rect x="600" y="110" width="170" height="30" fill="#fff" stroke="#3498db" stroke-width="1.5"/>
  <text x="685" y="129" font-family="monospace" font-size="10" fill="#3498db" text-anchor="middle">controllers</text>
  <rect x="600" y="150" width="170" height="30" fill="#fff" stroke="#9b59b6" stroke-width="1.5"/>
  <text x="685" y="169" font-family="monospace" font-size="10" fill="#9b59b6" text-anchor="middle">services + auth</text>
  <rect x="600" y="190" width="170" height="30" fill="#fff" stroke="#f39c12" stroke-width="1.5"/>
  <text x="685" y="209" font-family="monospace" font-size="10" fill="#f39c12" text-anchor="middle">repositories</text>
  <rect x="600" y="230" width="170" height="30" fill="#fff" stroke="#27ae60" stroke-width="1.5"/>
  <text x="685" y="249" font-family="monospace" font-size="10" fill="#27ae60" text-anchor="middle">asp.net identity</text>

  <path d="M 795 185 L 890 185" stroke="#3498db" stroke-width="2" fill="none" marker-end="url(#arrow)"/>
  <text x="842" y="205" font-family="monospace" font-size="9" fill="#3498db" text-anchor="middle">dapper/sql</text>

  <rect x="890" y="120" width="80" height="130" fill="none" stroke="#ccc" stroke-width="2"/>
  <text x="930" y="150" font-family="monospace" font-size="10" fill="#666" text-anchor="middle">SQL</text>
  <text x="930" y="170" font-family="monospace" font-size="8" fill="#999" text-anchor="middle">users</text>
  <text x="930" y="188" font-family="monospace" font-size="8" fill="#999" text-anchor="middle">patients</text>
  <text x="930" y="206" font-family="monospace" font-size="8" fill="#999" text-anchor="middle">dagboeken</text>
  <text x="930" y="224" font-family="monospace" font-size="8" fill="#999" text-anchor="middle">afspraken</text>

  <text x="500" y="380" font-family="monospace" font-size="10" fill="#999" text-anchor="middle">unity client communicates only through the api; sql server remains server-side and user-scoped</text>
</svg>